<?xml version="1.0" encoding="utf-8"?>
<!-- Generator: Adobe Illustrator 25.0.0, SVG Export Plug-In . SVG Version: 6.00 Build 0)  -->
<svg version="1.1" id="Layer_1" xmlns="http://www.w3.org/2000/svg" xmlns:xlink="http://www.w3.org/1999/xlink" x="0px" y="0px"
	 viewBox="0 0 25 24" style="enable-background:new 0 0 25 24;" xml:space="preserve">
<style type="text/css">
	.st0{fill-rule:evenodd;clip-rule:evenodd;fill:#D90000;}
</style>
<path class="st0" d="M8.1,1.1C9.3,1,9.7,1,12.7,1s3.4,0,4.5,0.1c1.2,0.1,2,0.2,2.7,0.5s1.4,0.7,1.9,1.3c0.6,0.5,1,1.2,1.3,1.9
	s0.5,1.5,0.5,2.7c0.1,1.2,0.1,1.5,0.1,4.5s0,3.4-0.1,4.5c-0.1,1.2-0.2,2-0.5,2.7s-0.7,1.4-1.3,1.9c-0.5,0.6-1.2,1-1.9,1.3
	c-0.7,0.3-1.5,0.5-2.7,0.5C16,23,15.7,23,12.7,23s-3.4,0-4.5-0.1c-1.2-0.1-2-0.2-2.7-0.5s-1.4-0.7-1.9-1.3c-0.6-0.5-1-1.2-1.3-1.9
	c-0.3-0.7-0.5-1.5-0.5-2.7C1.7,15.4,1.7,15,1.7,12s0-3.4,0.1-4.5c0.1-1.2,0.2-2,0.5-2.7c0.2-0.7,0.7-1.4,1.2-2s1.2-1,1.9-1.3
	C6.2,1.3,7,1.1,8.1,1.1L8.1,1.1z M17.1,3c-1.1,0-1.5,0-4.4,0c-3,0-3.3,0-4.5,0c-1.1,0-1.7,0.2-2,0.4C5.7,3.6,5.3,3.9,4.9,4.2
	C4.6,4.6,4.3,5,4.1,5.5c-0.2,0.4-0.3,1-0.4,2c0,1.2,0,1.6,0,4.5s0,3.3,0.1,4.4c0,1.1,0.2,1.7,0.4,2c0.2,0.5,0.5,0.9,0.8,1.3
	c0.4,0.4,0.8,0.6,1.3,0.8c0.4,0.2,1,0.3,2,0.4C9.4,21,9.7,21,12.7,21c2.9,0,3.3,0,4.4-0.1c1.1,0,1.7-0.2,2-0.4
	c0.5-0.2,0.9-0.4,1.3-0.8s0.6-0.8,0.8-1.3c0.2-0.4,0.3-1,0.4-2c0.1-1.2,0.1-1.5,0.1-4.4s0-3.3-0.1-4.4c0-1.1-0.2-1.7-0.4-2
	c-0.2-0.5-0.4-0.9-0.8-1.3c-0.4-0.4-0.8-0.6-1.3-0.8C18.8,3.3,18.2,3.1,17.1,3z M11.3,15.4c0.8,0.3,1.7,0.4,2.5,0.1
	c0.8-0.2,1.5-0.8,2-1.5c0.5-0.7,0.7-1.6,0.6-2.4c-0.1-0.8-0.5-1.6-1.1-2.2c-0.4-0.4-0.8-0.7-1.4-0.9c-0.5-0.2-1.1-0.2-1.6-0.2
	c-0.5,0.1-1.1,0.2-1.5,0.5C10.3,9.1,9.9,9.5,9.6,10c-0.3,0.5-0.5,1-0.6,1.5c0,0.5,0,1,0.2,1.6c0.2,0.5,0.4,1,0.8,1.4
	C10.3,14.9,10.8,15.2,11.3,15.4z M8.7,8c0.5-0.5,1.1-0.9,1.8-1.2c0.7-0.3,1.4-0.4,2.2-0.4c0.7,0,1.5,0.1,2.2,0.4s1.3,0.7,1.8,1.2
	s0.9,1.1,1.2,1.8c0.3,0.7,0.4,1.4,0.4,2.2s-0.1,1.5-0.4,2.2s-0.7,1.3-1.2,1.8c-1.1,1.1-2.5,1.7-4,1.7s-2.9-0.6-4-1.7
	C7.6,14.9,7,13.5,7,12S7.6,9.1,8.7,8z M19.6,7.2c0.1-0.1,0.2-0.3,0.3-0.4C20,6.6,20,6.4,20,6.2c0-0.2,0-0.4-0.1-0.5
	c-0.1-0.2-0.2-0.3-0.3-0.4C19.5,5.1,19.3,5,19.2,5c-0.2-0.1-0.3-0.1-0.5-0.1s-0.4,0-0.5,0.1c-0.2,0.1-0.3,0.2-0.4,0.3
	c-0.2,0.3-0.4,0.6-0.4,0.9s0.1,0.7,0.4,0.9c0.2,0.2,0.6,0.4,0.9,0.4C19,7.6,19.3,7.4,19.6,7.2z"/>
</svg>
