<?xml version="1.0" encoding="utf-8"?>
<!-- Generator: Adobe Illustrator 25.0.0, SVG Export Plug-In . SVG Version: 6.00 Build 0)  -->
<svg version="1.1" id="Layer_1" xmlns="http://www.w3.org/2000/svg" xmlns:xlink="http://www.w3.org/1999/xlink" x="0px" y="0px"
	 viewBox="0 0 25 24" style="enable-background:new 0 0 25 24;" xml:space="preserve">
<style type="text/css">
	.st0{fill-rule:evenodd;clip-rule:evenodd;fill:#D90000;}
</style>
<path class="st0" d="M10,15.6V8.8l6.5,3.4L10,15.6z M24.3,7.6c0,0-0.2-1.7-1-2.4c-0.9-1-1.9-1-2.4-1C17.5,4,12.5,4,12.5,4l0,0
	c0,0-5,0-8.4,0.2c-0.5,0.1-1.5,0.1-2.4,1C1,6,0.7,7.6,0.7,7.6s-0.2,1.9-0.2,3.9v1.8c0,1.9,0.2,3.9,0.2,3.9s0.2,1.7,1,2.4
	c0.9,1,2.1,0.9,2.6,1c1.9,0.2,8.2,0.2,8.2,0.2s5,0,8.4-0.2c0.5-0.1,1.5-0.1,2.4-1c0.7-0.7,1-2.4,1-2.4s0.2-1.9,0.2-3.9v-1.8
	C24.5,9.6,24.3,7.6,24.3,7.6z"/>
</svg>
